<svg width="100%" height="100%" viewBox="0 0 57 57" version="1.1" xmlns="http://www.w3.org/2000/svg" xmlns:xlink="http://www.w3.org/1999/xlink" xml:space="preserve" xmlns:serif="http://www.serif.com/" style="fill-rule:evenodd;clip-rule:evenodd;stroke-linejoin:round;stroke-miterlimit:1.41421;"><g><path d="M52.823,29.018c0.01,0.001 0.021,0.002 0.031,0.002c0.079,0 0.152,-0.058 0.166,-0.139c0.017,-0.091 -0.044,-0.179 -0.135,-0.197c-2.312,-0.426 -4.003,-0.897 -9.709,-0.85c0.356,-1.315 0.548,-2.871 0.586,-4.714c-0.009,-4.997 -2.4,-6.764 -2.86,-7.594c0.678,-3.782 -0.113,-5.504 -0.48,-6.095c-1.355,-0.482 -4.714,1.24 -6.549,2.454c-2.992,-0.875 -9.316,-0.791 -11.687,0.226c-4.375,-3.134 -6.69,-2.654 -6.69,-2.654c0,0 -1.496,2.682 -0.395,6.606c-1.44,1.835 -2.513,3.133 -2.513,6.575c0,1.939 0.228,3.674 0.743,5.189c-2.29,-0.005 -7.09,0.303 -9.338,0.859c-0.09,0.022 -0.145,0.115 -0.124,0.205c0.019,0.077 0.089,0.129 0.165,0.129c0.013,0 0.027,-0.001 0.041,-0.005c2.268,-0.561 7.228,-0.866 9.378,-0.848c0.123,0.327 0.261,0.643 0.413,0.949c-5.527,0.147 -7.017,0.936 -9.338,1.515c-0.168,0.043 -0.333,0.084 -0.493,0.123c-0.09,0.023 -0.147,0.115 -0.124,0.206c0.019,0.076 0.088,0.128 0.165,0.128c0.013,0 0.027,-0.001 0.04,-0.004c0.161,-0.041 0.326,-0.081 0.495,-0.124c2.327,-0.582 3.838,-1.376 9.432,-1.51c1.644,2.985 4.814,4.843 10.162,5.357c-0.763,0.579 -1.68,1.679 -1.807,2.95c-0.959,0.621 -2.889,0.826 -4.39,0.353c-2.102,-0.664 -2.907,-4.828 -6.056,-4.235c-0.682,0.129 -0.546,0.578 0.043,0.96c0.96,0.621 1.863,1.398 2.56,3.052c0.535,1.271 1.66,3.54 5.217,3.54c1.411,0 2.401,-0.169 2.401,-0.169c0,0 0.027,3.242 0.027,4.502c0,1.453 -1.961,1.863 -1.961,2.562c0,0.277 0.649,0.303 1.171,0.303c1.031,0 3.176,-0.861 3.176,-2.372c0,-1.2 0.019,-5.236 0.019,-5.941c0,-1.544 0.828,-2.033 0.828,-2.033c0,0 0.103,8.24 -0.198,9.344c-0.352,1.299 -0.988,1.115 -0.988,1.694c0,0.861 2.583,0.211 3.439,-1.68c0.661,-1.473 0.372,-9.556 0.372,-9.556l0.706,-0.014c0,0 0.04,3.7 0.016,5.392c-0.025,1.751 -0.144,3.967 0.896,5.011c0.683,0.687 2.899,1.891 2.899,0.79c0,-0.64 -1.214,-1.166 -1.214,-2.898c0,-1.885 0,-7.443 0,-7.97c0.969,0 0.823,2.621 0.823,2.621l0.071,4.869c0,0 -0.213,1.774 1.919,2.517c0.752,0.263 2.362,0.334 2.438,-0.107c0.075,-0.443 -1.939,-1.101 -1.957,-2.476c-0.012,-0.837 0.037,-1.326 0.037,-4.968c0,-3.641 -0.489,-4.987 -2.193,-6.06c5.259,-0.541 8.513,-1.842 10.1,-5.327c1.822,0.06 5.638,0.247 10.074,1.603c0.015,0.005 0.032,0.008 0.049,0.008c0.073,0 0.139,-0.048 0.162,-0.12c0.027,-0.09 -0.023,-0.185 -0.113,-0.212c-4.375,-1.338 -8.074,-1.547 -10.028,-1.613c0.123,-0.302 0.236,-0.62 0.337,-0.953c5.738,-0.053 7.434,0.417 9.743,0.844Zm-39.84,5.539c-0.21,0 -0.381,-0.114 -0.381,-0.254c0,-0.14 0.171,-0.254 0.381,-0.254c0.211,0 0.381,0.114 0.381,0.254c0,0.14 -0.17,0.254 -0.381,0.254Zm0.805,0.391c0,-0.14 0.17,-0.254 0.381,-0.254c0.21,0 0.381,0.114 0.381,0.254c0,0.14 -0.171,0.254 -0.381,0.254c-0.211,0 -0.381,-0.114 -0.381,-0.254Zm0.724,0.861c0,-0.14 0.171,-0.254 0.381,-0.254c0.211,0 0.381,0.114 0.381,0.254c0,0.14 -0.17,0.254 -0.381,0.254c-0.21,0 -0.381,-0.114 -0.381,-0.254Zm1.016,1.228c-0.21,0 -0.381,-0.114 -0.381,-0.254c0,-0.141 0.171,-0.254 0.381,-0.254c0.211,0 0.382,0.113 0.382,0.254c0,0.14 -0.171,0.254 -0.382,0.254Zm0.725,0.917c-0.21,0 -0.381,-0.113 -0.381,-0.254c0,-0.14 0.171,-0.254 0.381,-0.254c0.211,0 0.381,0.114 0.381,0.254c0,0.141 -0.171,0.254 -0.381,0.254Zm0.979,0.781c-0.211,0 -0.381,-0.113 -0.381,-0.254c0,-0.14 0.17,-0.254 0.381,-0.254c0.21,0 0.381,0.114 0.381,0.254c0,0.141 -0.171,0.254 -0.381,0.254Zm1.369,0.508c-0.211,0 -0.381,-0.113 -0.381,-0.254c0,-0.14 0.17,-0.254 0.381,-0.254c0.21,0 0.381,0.114 0.381,0.254c0,0.141 -0.171,0.254 -0.381,0.254Zm1.374,0c-0.211,0 -0.382,-0.113 -0.382,-0.254c0,-0.14 0.171,-0.254 0.382,-0.254c0.21,0 0.381,0.114 0.381,0.254c0,0.141 -0.171,0.254 -0.381,0.254Zm1.378,-0.216c-0.21,0 -0.381,-0.114 -0.381,-0.254c0,-0.14 0.171,-0.254 0.381,-0.254c0.211,0 0.381,0.114 0.381,0.254c0,0.14 -0.17,0.254 -0.381,0.254Zm10.794,-5.408c-1.137,0.037 -2.315,0.056 -3.503,0.056c-1.199,0 -2.356,-0.019 -3.44,-0.058c-5.777,-0.202 -8.959,-2.641 -8.959,-6.865c0,-0.439 0.093,-1.981 1.288,-3.414c1.162,-1.393 2.942,-2.129 5.148,-2.129c0.15,0 0.419,0.016 0.965,0.05c1.17,0.073 3.128,0.195 5.067,0.195c1.755,0 3.531,-0.13 4.484,-0.2c0.447,-0.032 0.626,-0.045 0.742,-0.045c4.692,0 6.364,2.998 6.364,5.804c0.001,2.892 -1.415,6.385 -8.156,6.606Z" style="fill-rule:nonzero;"/><path d="M11.835,37.272c0.91,0 0.016,-1.41 0,-2.07c-0.004,0.642 -0.909,2.07 0,2.07Z" style="fill-rule:nonzero;"/><path d="M29.544,31.203c-0.093,0 -0.169,0.076 -0.169,0.169c0,0.373 -0.439,0.791 -1.026,0.791c-0.084,0 -0.166,-0.01 -0.244,-0.026c-0.195,-0.042 -0.367,-0.13 -0.508,-0.234c-0.028,-0.021 -0.055,-0.042 -0.08,-0.064c-0.077,-0.065 -0.142,-0.133 -0.193,-0.199c-0.085,-0.108 -0.132,-0.208 -0.132,-0.268c0,-0.093 -0.076,-0.169 -0.169,-0.169c-0.094,0 -0.17,0.076 -0.17,0.169c0,0.049 0.01,0.102 0.029,0.16c0.028,0.086 0.077,0.179 0.144,0.273c0.067,0.095 0.151,0.189 0.251,0.277c0.1,0.088 0.215,0.168 0.342,0.235c0.16,0.084 0.339,0.146 0.532,0.171c0.065,0.009 0.131,0.014 0.198,0.014c0.352,0 0.657,-0.114 0.889,-0.287c0.033,-0.025 0.065,-0.051 0.095,-0.078c0.06,-0.054 0.114,-0.112 0.161,-0.173c0.117,-0.152 0.192,-0.322 0.213,-0.491c0.004,-0.034 0.007,-0.067 0.007,-0.101c0,-0.093 -0.076,-0.169 -0.17,-0.169Z" style="fill-rule:nonzero;"/><path d="M27.847,30.296c0.042,0.062 0.095,0.116 0.157,0.158c0.024,0.015 0.048,0.03 0.074,0.042c0.051,0.025 0.106,0.042 0.164,0.051c0.029,0.004 0.058,0.006 0.089,0.006c0.12,0 0.233,-0.036 0.326,-0.099c0.039,-0.027 0.074,-0.057 0.105,-0.092c0.044,-0.048 0.076,-0.105 0.102,-0.166c0.03,-0.07 0.05,-0.145 0.05,-0.226c0,-0.322 -0.261,-0.584 -0.583,-0.584c-0.162,0 -0.307,0.066 -0.413,0.171c-0.005,0.005 -0.008,0.011 -0.012,0.016c-0.03,0.032 -0.056,0.067 -0.078,0.106c-0.031,0.053 -0.056,0.111 -0.069,0.173c-0.008,0.038 -0.012,0.078 -0.012,0.118c0,0.04 0.004,0.08 0.012,0.118c0.015,0.076 0.046,0.146 0.088,0.208Z" style="fill-rule:nonzero;"/><path d="M23.527,24.178c-0.12,-0.147 -0.249,-0.277 -0.386,-0.388c-0.137,-0.111 -0.282,-0.203 -0.434,-0.273c-0.151,-0.07 -0.309,-0.119 -0.471,-0.143c-0.082,-0.013 -0.164,-0.019 -0.248,-0.019c-1.335,0 -2.418,1.614 -2.418,3.604c0,1.99 1.083,3.378 2.418,3.378c0.084,0 0.166,-0.005 0.248,-0.016c0.162,-0.021 0.32,-0.064 0.471,-0.125c0.152,-0.062 0.297,-0.143 0.434,-0.242c0.137,-0.098 0.266,-0.215 0.386,-0.348c0.119,-0.133 0.229,-0.282 0.327,-0.446c0.345,-0.575 0.553,-1.33 0.553,-2.201c0,-0.871 -0.208,-1.669 -0.553,-2.293c-0.098,-0.178 -0.208,-0.341 -0.327,-0.488Z" style="fill-rule:nonzero;"/><path d="M35.059,23.355c-1.336,0 -2.419,1.613 -2.419,3.604c0,1.99 1.083,3.378 2.419,3.378c1.335,0 2.418,-1.388 2.418,-3.378c0,-1.991 -1.083,-3.604 -2.418,-3.604Z" style="fill-rule:nonzero;"/></g></svg>
