<svg width="100%" height="100%" viewBox="0 0 57 57" version="1.1" xmlns="http://www.w3.org/2000/svg" xmlns:xlink="http://www.w3.org/1999/xlink" xml:space="preserve" xmlns:serif="http://www.serif.com/" style="fill-rule:evenodd;clip-rule:evenodd;stroke-linejoin:round;stroke-miterlimit:1.41421;"><path d="M54.082,15.55c-1.812,0.804 -3.76,1.347 -5.805,1.591c2.087,-1.25 3.689,-3.231 4.444,-5.592c-1.953,1.159 -4.115,2 -6.418,2.454c-1.843,-1.965 -4.47,-3.192 -7.377,-3.192c-5.581,0 -10.107,4.525 -10.107,10.107c0,0.792 0.09,1.563 0.262,2.302c-8.4,-0.421 -15.848,-4.444 -20.832,-10.559c-0.87,1.492 -1.369,3.228 -1.369,5.081c0,3.506 1.785,6.599 4.496,8.412c-1.656,-0.053 -3.215,-0.507 -4.577,-1.264c-0.001,0.042 -0.001,0.084 -0.001,0.128c0,4.896 3.484,8.981 8.108,9.91c-0.848,0.23 -1.741,0.354 -2.663,0.354c-0.652,0 -1.285,-0.063 -1.902,-0.181c1.287,4.015 5.019,6.937 9.441,7.019c-3.459,2.711 -7.817,4.326 -12.553,4.326c-0.815,0 -1.619,-0.048 -2.41,-0.141c4.474,2.868 9.786,4.541 15.493,4.541c18.591,0 28.756,-15.401 28.756,-28.757c0,-0.437 -0.009,-0.874 -0.028,-1.307c1.974,-1.425 3.688,-3.205 5.042,-5.233Z" style="fill-rule:nonzero;"/></svg>
