<svg width="100%" height="100%" viewBox="0 0 900 900" style="fill-rule: evenodd;">
    <path d="M555.675,277.566l-212.304,-277.566l-1.73,343.282l-341.641,105.809l343.419,106.005l-0.009,343.074l212.265,-277.559l343.41,105.999l-212.244,-277.518l212.252,-277.53l-343.418,106.004Zm-58.671,171.535l-139.631,408.254l192.966,-252.315l-53.335,-155.939Zm0.004,-0.011l365.56,252.316l-192.966,-252.316l-172.594,0Zm-0.005,0l-451.857,0l312.225,96.376l139.632,-96.376Zm0.006,-0.003l365.56,-252.315l-312.226,96.376l-53.334,155.939Zm0,-0.001l-139.632,-408.254l0,311.878l139.632,96.376Z" />
</svg>
